<svg xmlns="http://www.w3.org/2000/svg" width="128" height="128" viewBox="0 0 128 128">
  <defs>
    <linearGradient id="bgA" x1="0" y1="0" x2="1" y2="1">
      <stop offset="0" stop-color="#4c8fd6"/>
      <stop offset="1" stop-color="#2b5c96"/>
    </linearGradient>
    <linearGradient id="glassA" x1="0" y1="0" x2="0" y2="1">
      <stop offset="0" stop-color="#ffffff" stop-opacity="0.38"/>
      <stop offset="1" stop-color="#ffffff" stop-opacity="0.16"/>
    </linearGradient>
    <filter id="shA" x="-30%" y="-30%" width="160%" height="160%">
      <feDropShadow dx="0" dy="3" stdDeviation="4" flood-color="#0c2848" flood-opacity="0.35"/>
    </filter>
  </defs>
  <rect x="0" y="0" width="128" height="128" rx="28" fill="url(#bgA)"/>
  <!-- paper -->
  <g filter="url(#shA)">
    <path d="M22 34 q0 -8 8 -8 h20 l10 10 v52 q0 8 -8 8 h-22 q-8 0 -8 -8 z" fill="#ffffff"/>
    <path d="M50 26 l10 10 h-7 q-3 0 -3 -3 z" fill="#c9d9ec"/>
  </g>
  <g stroke="#a8bcd4" stroke-width="5" stroke-linecap="round">
    <line x1="31" y1="52" x2="51" y2="52"/>
    <line x1="31" y1="64" x2="51" y2="64"/>
    <line x1="31" y1="76" x2="43" y2="76"/>
  </g>
  <!-- glass mirror -->
  <g filter="url(#shA)">
    <rect x="68" y="26" width="38" height="70" rx="9" fill="url(#glassA)"/>
  </g>
  <rect x="68" y="26" width="38" height="70" rx="9" fill="none" stroke="#ffffff" stroke-opacity="0.55" stroke-width="2"/>
  <g stroke="#ffffff" stroke-width="5" stroke-linecap="round">
    <line x1="77" y1="52" x2="97" y2="52"/>
    <line x1="77" y1="64" x2="97" y2="64"/>
    <line x1="85" y1="76" x2="97" y2="76"/>
  </g>
</svg>
